<svg width="192" height="52" viewBox="0 0 192 52" fill="none" xmlns="http://www.w3.org/2000/svg">
<path d="M14.6077 33.6425C9.19868 33.6425 0.750977 34.4193 0.750977 26.6177C0.750977 22.6494 3.6375 19.2073 7.77577 19.2073C21.2744 19.2073 32.211 30.1439 32.211 43.6425C32.211 47.5149 29.1049 50.7775 25.1862 50.7775C17.5035 50.7775 18.1614 42.5854 18.1614 37.2238C18.1614 35.2403 16.5636 33.6425 14.6077 33.6425Z" fill="url(#paint0_linear_3_387)"/>
<path d="M33.6438 14.6067C33.6438 9.1977 34.4205 0.75 26.619 0.75C22.6506 0.75 19.2085 3.63652 19.2085 7.77479C19.2085 21.2734 30.1451 32.2101 43.6438 32.2101H43.754C47.6382 32.2101 50.7787 29.0696 50.7787 25.1853C50.7787 17.5025 42.5866 18.1605 37.225 18.1605C35.2416 18.1605 33.6438 16.5627 33.6438 14.6067Z" fill="url(#paint1_linear_3_387)"/>
<path d="M56.0412 34C55.8552 34 55.8035 33.8657 55.8862 33.597C55.8862 33.535 55.8965 33.4833 55.9172 33.442C55.9172 33.4007 55.9275 33.349 55.9482 33.287C55.9689 33.225 55.9999 33.132 56.0412 33.008L56.3202 31.861C56.3615 31.737 56.4339 31.52 56.5372 31.21C56.6405 30.9 56.7129 30.6107 56.7542 30.342C56.8575 29.846 57.0539 29.0917 57.3432 28.079L57.5912 27.211C57.9839 25.9297 58.2319 25.0307 58.3352 24.514L58.7692 22.871C58.9759 22.189 59.0999 21.755 59.1412 21.569C59.2859 20.949 59.4925 20.174 59.7612 19.244L59.9782 18.376L60.1642 17.725C60.3709 17.0223 60.5465 16.516 60.6912 16.206C60.7325 16.082 60.8772 15.6583 61.1252 14.935C61.3939 14.191 61.5695 13.602 61.6522 13.168C61.7969 12.672 61.9415 12.3 62.0862 12.052C62.2515 11.804 62.4685 11.68 62.7372 11.68C62.8405 11.68 62.9439 11.773 63.0472 11.959C63.1505 12.145 63.2539 12.3723 63.3572 12.641C63.4605 12.9097 63.5329 13.106 63.5742 13.23C63.7395 13.6227 64.0289 14.6043 64.4422 16.175L64.6902 17.043C64.7109 17.2083 65.0519 18.221 65.7132 20.081L66.3022 21.786L66.8602 23.243C67.4389 24.8757 67.8109 25.8677 67.9762 26.219C68.6995 28.4097 69.1232 29.7323 69.2472 30.187C69.3919 30.7243 69.6192 31.396 69.9292 32.202C70.2599 33.008 70.4459 33.4627 70.4872 33.566C70.5492 33.7107 70.5802 33.814 70.5802 33.876C70.5802 33.9587 70.4665 34 70.2392 34H68.5032C68.4205 34 68.3482 33.9897 68.2862 33.969C68.2449 33.9277 68.2035 33.845 68.1622 33.721C68.0795 33.4937 67.9659 33.1217 67.8212 32.605C67.6352 32.0883 67.5112 31.6233 67.4492 31.21C67.3872 30.9 67.2839 30.528 67.1392 30.094C67.0152 29.66 66.9015 29.3293 66.7982 29.102C66.6122 28.7093 66.4469 28.265 66.3022 27.769L66.0232 26.87C65.9199 26.6427 65.8372 26.5083 65.7752 26.467C65.7339 26.405 65.6512 26.374 65.5272 26.374C65.0932 26.374 64.7729 26.3843 64.5662 26.405L63.2332 26.467C63.0679 26.4877 62.3032 26.498 60.9392 26.498H59.0482H58.9862C58.8622 26.498 58.7692 26.6117 58.7072 26.839L58.6452 27.149L58.5212 27.738C58.4799 27.862 58.3455 28.4613 58.1182 29.536C58.0562 29.8873 57.9529 30.342 57.8082 30.9C57.7669 31.3133 57.6739 31.6543 57.5292 31.923C57.4879 31.985 57.4362 32.1297 57.3742 32.357C57.3122 32.5843 57.2605 32.7703 57.2192 32.915C57.1572 33.0803 57.0849 33.349 57.0022 33.721C56.9815 33.7417 56.9609 33.7933 56.9402 33.876C56.9195 33.938 56.8885 33.9793 56.8472 34C56.8059 34 56.7439 34 56.6612 34H56.0412ZM61.9622 24.39C62.2102 24.3487 62.5615 24.328 63.0162 24.328L64.6902 24.359C64.9589 24.359 65.0932 24.2867 65.0932 24.142C65.0932 24.0387 65.0209 23.8113 64.8762 23.46C64.7522 23.15 64.5662 22.5713 64.3182 21.724C64.1322 21.042 63.9462 20.453 63.7602 19.957C63.5535 19.337 63.3262 18.6033 63.0782 17.756C62.8509 16.9087 62.7165 16.361 62.6752 16.113C62.3652 15.0177 62.1585 14.47 62.0552 14.47C61.9932 14.47 61.8899 14.749 61.7452 15.307L61.5592 15.989C61.4145 16.547 61.2285 17.2497 61.0012 18.097C60.7739 18.9237 60.5672 19.6263 60.3812 20.205C60.2572 20.7423 60.0815 21.4243 59.8542 22.251C59.6475 23.057 59.4822 23.615 59.3582 23.925C59.3169 24.049 59.2962 24.1213 59.2962 24.142C59.2962 24.2867 59.3582 24.3797 59.4822 24.421C59.6269 24.4623 59.7612 24.483 59.8852 24.483C60.0299 24.4623 60.1229 24.452 60.1642 24.452L61.9622 24.39ZM73.2341 34.372C72.9241 34.372 72.7174 34.31 72.6141 34.186C72.5108 34.0827 72.4488 33.9587 72.4281 33.814C72.4074 33.6693 72.3868 33.566 72.3661 33.504C72.2834 33.132 72.2421 32.6773 72.2421 32.14C72.2421 31.644 72.2524 31.2203 72.2731 30.869C72.2731 29.7943 72.2938 28.544 72.3351 27.118C72.3764 25.6713 72.4281 24.638 72.4901 24.018L72.6451 21.817C72.8931 18.3863 73.0171 16.454 73.0171 16.02C73.0171 14.3873 73.0481 13.168 73.1101 12.362C73.1514 11.804 73.4408 11.525 73.9781 11.525C74.1434 11.525 74.2984 11.5353 74.4431 11.556C74.5878 11.5767 74.7014 11.587 74.7841 11.587L77.4191 11.556C77.8738 11.556 78.2044 11.6077 78.4111 11.711C78.6384 11.7937 78.8141 11.9487 78.9381 12.176C79.1448 12.61 79.4031 13.168 79.7131 13.85L80.8601 16.33L82.3171 19.523C82.5858 20.1017 82.9371 20.8663 83.3711 21.817C83.8051 22.7677 84.1151 23.429 84.3011 23.801C84.6524 24.5243 84.8798 24.9687 84.9831 25.134L85.8511 26.839L86.8121 28.73L86.7501 26.932L86.6261 23.894V22.964C86.6261 21.8273 86.6468 20.6803 86.6881 19.523C86.6881 18.655 86.6778 17.9523 86.6571 17.415L86.6261 15.059L86.7501 12.083C86.7501 11.773 86.9051 11.618 87.2151 11.618C87.3184 11.618 87.5251 11.649 87.8351 11.711C88.0211 11.7523 88.2174 11.773 88.4241 11.773C88.6308 11.773 88.7961 11.773 88.9201 11.773C89.0854 11.773 89.1888 11.7937 89.2301 11.835C89.2921 11.8763 89.3231 11.9487 89.3231 12.052C89.3231 12.1347 89.3128 12.2277 89.2921 12.331C89.2714 12.4343 89.2611 12.548 89.2611 12.672L89.2301 15.338L89.1681 21.6L89.1371 22.499C89.1371 23.2017 89.1474 23.8423 89.1681 24.421C89.1888 24.9997 89.2094 25.475 89.2301 25.847C89.2921 26.7357 89.3231 27.4797 89.3231 28.079C89.3231 27.9963 89.3541 29.226 89.4161 31.768L89.4781 33.504V33.566C89.4781 33.9793 89.2818 34.1653 88.8891 34.124C88.8271 34.1033 88.7031 34.093 88.5171 34.093L87.6181 34.124H87.4321C87.2874 34.124 87.1738 34.093 87.0911 34.031C87.0291 33.969 86.9154 33.7933 86.7501 33.504C86.6881 33.3593 86.6054 33.1527 86.5021 32.884C86.3988 32.6153 86.2748 32.3157 86.1301 31.985C85.2414 29.753 84.6008 28.234 84.2081 27.428C83.7534 26.56 82.6064 24.0697 80.7671 19.957C80.3538 19.1097 79.8888 18.2107 79.3721 17.26L78.4731 15.648L78.5661 18.593L78.5971 20.422C78.6384 21.786 78.6591 22.685 78.6591 23.119C78.6591 24.8137 78.6901 26.5187 78.7521 28.234L78.7831 30.652C78.7831 31.086 78.8038 31.7163 78.8451 32.543L78.9071 33.628V33.69C78.9071 33.8967 78.8554 34.031 78.7521 34.093C78.6488 34.155 78.5041 34.186 78.3181 34.186L77.6361 34.217C77.2021 34.279 76.7371 34.31 76.2411 34.31C75.6624 34.31 75.1871 34.3203 74.8151 34.341L73.2341 34.372ZM97.7483 34.062C97.583 34.062 97.4486 34.0517 97.3453 34.031L93.1913 33.969C92.964 33.969 92.8503 33.845 92.8503 33.597C92.8503 33.3077 92.9536 32.9357 93.1603 32.481C93.181 32.419 93.4083 31.9127 93.8423 30.962C94.545 29.4533 94.979 28.5027 95.1443 28.11C95.3096 27.738 95.5473 27.1283 95.8573 26.281C96.188 25.413 96.436 24.762 96.6013 24.328C96.684 24.0593 96.7873 23.77 96.9113 23.46C96.9733 23.3153 97.149 22.902 97.4383 22.22C97.7276 21.5173 97.8723 21.0627 97.8723 20.856C97.8723 20.7113 97.8413 20.5873 97.7793 20.484C97.738 20.36 97.6656 20.2463 97.5623 20.143C97.4796 20.019 97.3866 19.8847 97.2833 19.74C96.9733 19.306 96.591 18.7273 96.1363 18.004C95.7023 17.2807 95.4026 16.764 95.2373 16.454C95.1133 16.144 94.8136 15.5963 94.3383 14.811C93.8836 14.0257 93.5736 13.5297 93.4083 13.323C93.2843 13.137 93.2223 12.982 93.2223 12.858C93.2223 12.7753 93.2533 12.703 93.3153 12.641C93.398 12.579 93.491 12.548 93.5943 12.548C93.7183 12.5273 93.832 12.5273 93.9353 12.548C94.0593 12.548 94.1626 12.548 94.2453 12.548C94.3693 12.5687 94.576 12.579 94.8653 12.579C95.1133 12.579 95.3096 12.6513 95.4543 12.796C95.6196 12.92 95.785 13.1267 95.9503 13.416L96.3533 14.191C96.4773 14.4183 96.684 14.811 96.9733 15.369C97.2626 15.927 97.4693 16.2783 97.5933 16.423C97.676 16.5057 97.769 16.6503 97.8723 16.857C97.9756 17.043 98.048 17.1773 98.0893 17.26C98.1513 17.3633 98.2546 17.5493 98.3993 17.818C98.5646 18.0867 98.6886 18.221 98.7713 18.221C98.9366 18.221 99.2156 17.6423 99.6083 16.485C100.001 15.307 100.239 14.4183 100.321 13.819C100.466 12.9097 100.828 12.455 101.406 12.455C101.53 12.455 101.778 12.4343 102.15 12.393C102.605 12.3517 102.956 12.331 103.204 12.331C103.638 12.331 104.114 12.3413 104.63 12.362C105.168 12.3827 105.581 12.4447 105.87 12.548C106.16 12.6307 106.304 12.8477 106.304 13.199C106.304 13.509 106.191 13.8707 105.963 14.284C105.715 14.8007 105.199 16.1957 104.413 18.469C104.186 19.0683 103.99 19.6057 103.824 20.081C103.576 20.639 103.287 21.3003 102.956 22.065C102.646 22.8297 102.491 23.3463 102.491 23.615C102.491 23.8837 102.543 24.1213 102.646 24.328C102.77 24.514 102.915 24.7103 103.08 24.917C103.246 25.103 103.359 25.2373 103.421 25.32C103.711 25.754 104.362 26.7977 105.374 28.451C107.09 31.2617 108.03 32.7703 108.195 32.977C108.423 33.225 108.536 33.4523 108.536 33.659C108.536 33.8037 108.423 33.876 108.195 33.876L106.335 33.938C106.17 33.938 105.994 33.6797 105.808 33.163C105.767 33.0597 105.705 32.9253 105.622 32.76C105.56 32.5947 105.498 32.4603 105.436 32.357C105.188 32.0263 104.413 30.7657 103.111 28.575C102.161 26.9837 101.603 26.188 101.437 26.188C101.375 26.188 101.313 26.2707 101.251 26.436C101.189 26.5807 101.127 26.7667 101.065 26.994L100.848 27.676C100.559 28.3373 100.063 29.7013 99.3603 31.768L98.7713 33.411C98.668 33.659 98.5336 33.8347 98.3683 33.938C98.203 34.0207 97.9963 34.062 97.7483 34.062ZM111.388 34.248C111.078 34.2687 110.881 34.1963 110.799 34.031C110.716 33.8863 110.664 33.6383 110.644 33.287C110.602 33.1423 110.623 32.76 110.706 32.14C110.788 31.5613 110.83 31.0653 110.83 30.652C110.83 30.5073 110.902 29.1123 111.047 26.467C111.171 24.5243 111.233 23.46 111.233 23.274L111.295 20.236L111.357 17.415L111.419 15.741L111.481 14.625V13.323C111.481 12.517 111.687 12.114 112.101 12.114C112.204 12.114 112.287 12.1243 112.349 12.145C112.617 12.1657 112.876 12.176 113.124 12.176C113.392 12.1553 113.62 12.145 113.806 12.145C114.26 12.145 114.591 12.1553 114.798 12.176C115.046 12.1967 115.221 12.2483 115.325 12.331C115.428 12.4137 115.48 12.5273 115.48 12.672C115.48 12.7753 115.469 12.889 115.449 13.013C115.428 13.137 115.407 13.2507 115.387 13.354C115.159 15.1107 115.035 16.919 115.015 18.779C114.994 19.3163 114.984 20.143 114.984 21.259L115.015 25.01C115.035 25.32 115.046 25.6403 115.046 25.971L115.077 27.211C115.118 28.2857 115.139 29.0813 115.139 29.598C115.139 29.9907 115.128 30.2283 115.108 30.311C115.087 30.3937 115.077 30.6313 115.077 31.024L115.108 32.729C115.128 32.977 115.139 33.287 115.139 33.659C115.159 33.9277 115.077 34.093 114.891 34.155C114.725 34.2377 114.498 34.2687 114.209 34.248H111.388ZM119.298 34.062C119.174 34.062 119.102 34.031 119.081 33.969C119.06 33.8863 119.05 33.7417 119.05 33.535C119.029 33.3077 119.019 32.9253 119.019 32.388C119.019 32.2227 119.009 32.047 118.988 31.861C118.967 31.6543 118.957 31.3857 118.957 31.055V26.808C118.957 26.3947 118.967 25.9917 118.988 25.599C119.029 25.2063 119.05 24.917 119.05 24.731C119.133 23.7803 119.174 22.871 119.174 22.003C119.174 20.9283 119.143 20.081 119.081 19.461C119.04 18.7583 119.019 18.1177 119.019 17.539C119.019 16.237 119.05 14.718 119.112 12.982C119.112 12.7133 119.164 12.5377 119.267 12.455C119.37 12.3517 119.515 12.3 119.701 12.3L120.166 12.331C120.352 12.331 120.652 12.3517 121.065 12.393C121.478 12.4137 121.985 12.424 122.584 12.424C123.266 12.424 124.072 12.3723 125.002 12.269C126.118 12.1863 126.862 12.145 127.234 12.145C128.081 12.145 128.856 12.176 129.559 12.238L130.675 12.269C130.944 12.269 131.119 12.331 131.202 12.455C131.285 12.579 131.326 12.8063 131.326 13.137C131.326 13.323 131.347 13.6433 131.388 14.098C131.429 14.6353 131.45 15.1003 131.45 15.493C131.45 15.9063 131.419 16.2887 131.357 16.64C131.336 16.95 131.192 17.105 130.923 17.105C130.84 17.105 130.727 17.0843 130.582 17.043C130.437 17.0017 130.324 16.9707 130.241 16.95C129.931 16.888 129.032 16.857 127.544 16.857L126.366 16.826C126.097 16.8053 125.705 16.795 125.188 16.795C124.816 16.795 124.537 16.8053 124.351 16.826C123.731 16.8673 123.183 16.888 122.708 16.888L121.065 16.857C120.9 16.857 120.807 16.8983 120.786 16.981C120.765 17.043 120.755 17.2083 120.755 17.477C120.755 17.849 120.745 18.1693 120.724 18.438C120.683 19.2647 120.662 19.9363 120.662 20.453V22.282C120.662 22.716 120.672 23.0467 120.693 23.274C120.858 23.2947 121.137 23.305 121.53 23.305C121.881 23.3257 122.605 23.336 123.7 23.336C124.155 23.336 124.816 23.3153 125.684 23.274C126.345 23.2327 126.779 23.212 126.986 23.212C127.275 23.212 127.565 23.2327 127.854 23.274C128.143 23.2947 128.36 23.305 128.505 23.305C128.774 23.305 128.908 23.429 128.908 23.677C128.908 23.7597 128.898 23.8837 128.877 24.049C128.856 24.1937 128.846 24.39 128.846 24.638L128.877 26.281C128.877 26.467 128.856 26.6013 128.815 26.684C128.774 26.746 128.701 26.777 128.598 26.777C128.536 26.777 128.443 26.7667 128.319 26.746C128.216 26.7047 128.123 26.684 128.04 26.684C127.854 26.684 127.503 26.6737 126.986 26.653C126.49 26.6323 125.808 26.622 124.94 26.622C124.01 26.622 123.204 26.6633 122.522 26.746C121.84 26.8287 121.427 26.87 121.282 26.87C121.055 26.87 120.92 26.8597 120.879 26.839C120.776 26.839 120.714 26.8287 120.693 26.808V29.908C120.838 29.908 120.951 29.8977 121.034 29.877L121.902 29.846L125.56 29.815C126.304 29.815 126.893 29.8253 127.327 29.846L129.466 29.877L130.768 29.846C131.016 29.846 131.181 29.908 131.264 30.032C131.347 30.1353 131.388 30.2903 131.388 30.497L131.357 31.117L131.326 33.287C131.326 33.6177 131.254 33.8243 131.109 33.907C130.964 33.969 130.758 34 130.489 34C130.22 33.9793 130.003 33.969 129.838 33.969C128.949 33.969 128.185 33.9587 127.544 33.938L124.382 33.907C124.134 33.907 122.894 33.938 120.662 34L119.484 34.031L119.298 34.062ZM139.841 34C139.593 34 139.448 33.9587 139.407 33.876C139.365 33.7933 139.345 33.6487 139.345 33.442C139.345 33.2147 139.345 33.0493 139.345 32.946L139.469 29.102C139.593 25.754 139.655 23.6047 139.655 22.654C139.655 22.1167 139.634 21.3107 139.593 20.236L139.562 18.593C138.074 18.593 136.565 18.6137 135.036 18.655L134.075 18.686C133.806 18.686 133.62 18.6137 133.517 18.469C133.413 18.3243 133.393 18.159 133.455 17.973L133.486 17.198C133.527 15.9993 133.548 14.8937 133.548 13.881C133.548 13.385 133.537 13.0853 133.517 12.982V12.765C133.517 12.5377 133.558 12.4033 133.641 12.362C133.744 12.3207 133.889 12.3 134.075 12.3H137.144L138.88 12.269C139.954 12.2277 140.709 12.207 141.143 12.207L143.003 12.238C144.491 12.2793 145.658 12.3 146.506 12.3C147.126 12.3 147.529 12.2897 147.715 12.269C148.169 12.2483 148.49 12.3207 148.676 12.486C148.862 12.6307 148.955 12.796 148.955 12.982C148.955 13.0853 148.934 13.354 148.893 13.788C148.872 14.222 148.862 14.7593 148.862 15.4C148.862 15.9787 148.893 16.764 148.955 17.756C148.955 18.314 148.593 18.593 147.87 18.593H142.414L142.352 21.786C142.331 22.1373 142.321 23.0157 142.321 24.421C142.321 25.8677 142.331 27.273 142.352 28.637C142.372 30.001 142.383 31.179 142.383 32.171L142.414 33.442V33.597C142.414 33.783 142.383 33.8967 142.321 33.938C142.279 33.9793 142.217 34 142.135 34C142.052 34 141.99 34 141.949 34H139.841ZM153.242 34.093C152.973 34.093 152.839 34.031 152.839 33.907C152.839 33.845 152.849 33.7933 152.87 33.752C152.911 33.69 152.942 33.628 152.963 33.566L154.079 30.559C154.141 30.2283 154.296 29.784 154.544 29.226C154.606 29.0607 154.668 28.9057 154.73 28.761C154.792 28.5957 154.844 28.4303 154.885 28.265C154.926 28.141 154.988 27.9963 155.071 27.831C155.154 27.6657 155.205 27.5313 155.226 27.428C155.247 27.304 155.236 27.1903 155.195 27.087C155.195 27.087 155.081 26.7667 154.854 26.126C154.565 25.2167 154.368 24.638 154.265 24.39C154.141 24.08 153.976 23.5737 153.769 22.871C153.624 22.3957 153.49 21.972 153.366 21.6C153.201 21.1867 152.829 20.143 152.25 18.469C151.671 16.795 151.248 15.524 150.979 14.656C150.855 14.284 150.731 13.9637 150.607 13.695C150.462 13.3643 150.39 13.137 150.39 13.013C150.39 12.8683 150.462 12.7753 150.607 12.734C150.772 12.672 151.01 12.6307 151.32 12.61C151.63 12.5893 152.147 12.5997 152.87 12.641C153.035 12.6617 153.139 12.703 153.18 12.765C153.221 12.827 153.242 12.9097 153.242 13.013C153.242 13.0957 153.263 13.1887 153.304 13.292L154.079 15.865C154.513 17.229 155.019 18.5723 155.598 19.895C155.867 20.515 156.156 21.3003 156.466 22.251C156.797 23.243 156.962 23.739 156.962 23.739L157.21 22.964L157.675 21.631C157.882 21.011 158.181 20.174 158.574 19.12C158.987 18.0453 159.266 17.3633 159.411 17.074C159.99 15.4 160.362 14.2117 160.527 13.509C160.63 13.0957 160.765 12.8373 160.93 12.734C161.095 12.6307 161.25 12.5893 161.395 12.61C161.56 12.61 161.664 12.61 161.705 12.61L163.379 12.579C163.896 12.579 164.34 12.5997 164.712 12.641C165.146 12.703 165.363 12.8063 165.363 12.951C165.363 12.9717 165.342 13.0647 165.301 13.23C165.26 13.3333 165.208 13.4677 165.146 13.633C165.105 13.7777 165.053 13.943 164.991 14.129C164.495 15.5963 164.175 16.4953 164.03 16.826C163.761 17.6113 163.307 18.7893 162.666 20.36L161.364 23.77C160.909 24.886 160.331 26.3327 159.628 28.11C158.925 29.8873 158.543 30.9 158.481 31.148C158.398 31.396 158.305 31.799 158.202 32.357C158.119 32.8943 158.057 33.2457 158.016 33.411C157.954 33.659 157.882 33.8347 157.799 33.938C157.737 34.0207 157.644 34.0517 157.52 34.031L155.691 34.062L153.242 34.093ZM179.823 34.155C179.699 34.1343 179.606 34.0827 179.544 34C179.482 33.938 179.409 33.8037 179.327 33.597L178.986 32.915C178.882 32.6877 178.603 32.264 178.149 31.644C177.632 30.9413 177.291 30.3937 177.126 30.001C176.919 29.629 176.526 28.9677 175.948 28.017C175.39 27.0457 174.956 26.3017 174.646 25.785C174.501 25.5783 174.377 25.475 174.274 25.475C174.191 25.475 174.057 25.599 173.871 25.847C173.581 26.1983 173.282 26.591 172.972 27.025C172.455 27.7483 172.073 28.2547 171.825 28.544C171.535 28.916 171.143 29.505 170.647 30.311C170.171 31.117 169.851 31.7267 169.686 32.14C169.5 32.5327 169.241 32.9253 168.911 33.318C168.601 33.7107 168.353 33.9483 168.167 34.031C168.001 34.0723 167.826 34.093 167.64 34.093C167.268 34.093 166.896 34.0413 166.524 33.938C166.338 33.876 166.245 33.783 166.245 33.659C166.245 33.5557 166.307 33.4007 166.431 33.194C166.555 32.9873 166.648 32.8427 166.71 32.76C166.834 32.5533 167.164 32.078 167.702 31.334C168.26 30.5693 168.663 30.0113 168.911 29.66C168.911 29.66 169.241 29.2053 169.903 28.296C170.151 27.9653 170.657 27.2213 171.422 26.064C171.897 25.2787 172.279 24.7103 172.569 24.359C172.817 24.0077 172.941 23.6873 172.941 23.398C172.941 23.1913 172.868 22.9433 172.724 22.654C172.62 22.4473 172.269 21.8377 171.67 20.825L170.213 18.19C169.944 17.6733 169.169 16.423 167.888 14.439C167.288 13.5297 166.896 12.9097 166.71 12.579C166.565 12.3517 166.493 12.1657 166.493 12.021C166.493 11.7937 166.637 11.7007 166.927 11.742C167.113 11.7627 167.412 11.7523 167.826 11.711L168.508 11.68C168.673 11.7007 168.818 11.7833 168.942 11.928C169.086 12.0727 169.252 12.3 169.438 12.61L169.872 13.261L170.213 13.819C170.957 14.997 171.525 15.9167 171.918 16.578C172.29 17.2393 172.837 18.1693 173.561 19.368C173.891 19.926 174.212 20.4323 174.522 20.887C174.625 20.887 174.708 20.8457 174.77 20.763C174.852 20.6597 174.925 20.5357 174.987 20.391C175.049 20.2257 175.121 20.081 175.204 19.957L176.909 17.167C177.88 15.5757 178.624 14.4287 179.141 13.726C179.327 13.478 179.513 13.1577 179.699 12.765C180.009 12.1657 180.257 11.8143 180.443 11.711C180.815 11.5457 181.187 11.463 181.559 11.463C181.91 11.463 182.168 11.525 182.334 11.649C182.52 11.773 182.571 11.9487 182.489 12.176C182.385 12.486 182.065 13.0027 181.528 13.726C181.197 14.1393 180.711 14.842 180.071 15.834L179.296 17.012C179.048 17.3633 178.562 18.2313 177.839 19.616C177.115 21.0007 176.588 22.0237 176.258 22.685C176.113 22.8917 176.041 23.0673 176.041 23.212C176.041 23.3153 176.113 23.5323 176.258 23.863C176.32 23.987 176.609 24.4623 177.126 25.289C177.229 25.4543 177.343 25.63 177.467 25.816C177.591 26.002 177.704 26.1983 177.808 26.405C178.676 27.9757 179.389 29.133 179.947 29.877C180.339 30.497 180.753 31.1687 181.187 31.892C181.621 32.6153 181.962 33.194 182.21 33.628C182.292 33.7727 182.334 33.8863 182.334 33.969C182.334 34.1137 182.148 34.186 181.776 34.186L179.823 34.155Z" fill="#F5F5F5"/>
<defs>
<linearGradient id="paint0_linear_3_387" x1="2.12839" y1="20.5847" x2="31.1917" y2="52.6784" gradientUnits="userSpaceOnUse">
<stop stop-color="#5CA3FF"/>
<stop offset="0.53" stop-color="#8840FC"/>
<stop offset="1" stop-color="#F967BE"/>
</linearGradient>
<linearGradient id="paint1_linear_3_387" x1="16.0405" y1="-2.96901" x2="56.6741" y2="22.7886" gradientUnits="userSpaceOnUse">
<stop stop-color="#5CA3FF"/>
<stop offset="0.53" stop-color="#8840FC"/>
<stop offset="1" stop-color="#F967BE"/>
</linearGradient>
</defs>
</svg>
